<?xml version="1.0" encoding="UTF-8"?>
<svg version="1.1" xmlns="http://www.w3.org/2000/svg" width="1254" height="1254">
<path d="M0 0 C413.82 0 827.64 0 1254 0 C1254 413.82 1254 827.64 1254 1254 C840.18 1254 426.36 1254 0 1254 C0 840.18 0 426.36 0 0 Z " fill="#080709" transform="translate(0,0)"/>
<path d="M0 0 C2.50434874 0.00028241 5.00869757 0.00012308 7.51304626 -0.0004425 C12.88271013 -0.00066932 18.25235889 0.0021444 23.62201881 0.00779533 C31.38542035 0.01596003 39.14881603 0.01853062 46.91222139 0.01978333 C59.51114574 0.02196607 72.11006356 0.028605 84.70898438 0.03808594 C96.93977832 0.04728022 109.17057048 0.05435117 121.40136719 0.05859375 C122.53428939 0.05898784 122.53428939 0.05898784 123.69009892 0.05938988 C127.47953476 0.06069502 131.26897061 0.06195871 135.05840647 0.06320179 C166.44153027 0.07355018 197.82464598 0.09122216 229.20776367 0.11352539 C228.01376938 3.16153454 226.83611749 5.92066161 225.02807617 8.65258789 C224.60018799 9.30533691 224.1722998 9.95808594 223.73144531 10.63061523 C223.26988037 11.32622559 222.80831543 12.02183594 222.33276367 12.73852539 C221.33312415 14.26395042 220.33446101 15.79001565 219.33666992 17.31665039 C218.81991699 18.10620117 218.30316406 18.89575195 217.77075195 19.70922852 C214.7269296 24.39144697 211.7596049 29.12193451 208.78515625 33.84838867 C208.0430188 35.02763916 208.0430188 35.02763916 207.28588867 36.23071289 C206.78637695 37.02445312 206.28686523 37.81819336 205.7722168 38.63598633 C204.12788963 41.24001755 202.47357403 43.83749378 200.81713867 46.43383789 C200.26533936 47.30089355 199.71354004 48.16794922 199.14501953 49.0612793 C198.08321878 50.72920794 197.01902815 52.39561824 195.95214844 54.06030273 C195.2375647 55.1849292 195.2375647 55.1849292 194.50854492 56.33227539 C194.08742432 56.99163086 193.66630371 57.65098633 193.23242188 58.33032227 C192.05357204 60.24531864 192.05357204 60.24531864 191.20776367 63.11352539 C190.15476798 63.11591374 189.10177229 63.1183021 188.01686764 63.12076283 C162.35004671 63.17965698 136.68331891 63.25560089 111.01660061 63.3492403 C98.60417469 63.39413296 86.19177704 63.43356264 73.77929688 63.45996094 C62.95578172 63.48299394 52.13235654 63.51645103 41.30891281 63.56222695 C35.58235199 63.58608772 29.85587988 63.60486325 24.12927055 63.6111393 C18.72923593 63.61722256 13.32942808 63.63733866 7.92947769 63.6678009 C5.95718656 63.67652943 3.98486572 63.68031459 2.01255608 63.67853355 C-21.21807255 63.66419088 -40.49428334 67.59261147 -57.75317383 84.59008789 C-63.58229686 90.9065331 -67.32570869 98.89458484 -71.33959961 106.42211914 C-73.56287375 110.54134168 -75.92703911 114.57469915 -78.29223633 118.61352539 C-82.66528986 126.14213907 -86.99188847 133.6967146 -91.30078125 141.26220703 C-93.7617594 145.57861162 -96.23670997 149.8855006 -98.74926758 154.17211914 C-111.55009369 174.2674037 -111.55009369 174.2674037 -114.79223633 197.11352539 C-112.82985298 203.68842662 -109.51797864 208.02593739 -103.95239258 211.95727539 C-98.15620318 215.05975651 -92.98943868 215.3949726 -86.57397461 215.34057617 C-85.21203728 215.34101425 -85.21203728 215.34101425 -83.82258606 215.34146118 C-80.83580815 215.34007318 -77.84928291 215.32453687 -74.86254883 215.30883789 C-72.78604265 215.30510588 -70.7095347 215.3022598 -68.63302612 215.30026245 C-63.17829492 215.29264082 -57.7236709 215.27300491 -52.26898193 215.25085449 C-46.69862314 215.23036442 -41.12824697 215.22125397 -35.55786133 215.21118164 C-24.63593934 215.18975767 -13.71409676 215.15563943 -2.79223633 215.11352539 C-2.41526611 214.43475342 -2.0382959 213.75598145 -1.64990234 213.05664062 C0.11257013 209.88665855 1.87890885 206.7188457 3.64526367 203.55102539 C4.23758789 202.48432617 4.82991211 201.41762695 5.44018555 200.31860352 C10.19608478 191.79867709 15.18061588 183.49210504 20.20776367 175.11352539 C-0.58223633 175.11352539 -21.37223633 175.11352539 -42.79223633 175.11352539 C-41.9021878 170.66328277 -40.99973013 168.30220157 -38.83520508 164.45727539 C-38.22265869 163.36181396 -37.6101123 162.26635254 -36.97900391 161.13769531 C-36.3128237 159.96283457 -35.64639592 158.78811418 -34.97973633 157.61352539 C-34.30044848 156.40587756 -33.62166075 155.19794828 -32.94335938 153.98974609 C-31.22896458 150.94065467 -29.50585215 147.8965973 -27.77941895 144.85430908 C-26.84205268 143.20137083 -25.90739988 141.54689467 -24.97290039 139.89233398 C-23.35412077 137.02630554 -21.73100757 134.16280853 -20.10473633 131.30102539 C-19.62480225 130.45540039 -19.14486816 129.60977539 -18.65039062 128.73852539 C-18.19833252 127.94833008 -17.74627441 127.15813477 -17.28051758 126.34399414 C-16.89420166 125.66747803 -16.50788574 124.99096191 -16.10986328 124.29394531 C-15.67504639 123.57440674 -15.24022949 122.85486816 -14.79223633 122.11352539 C-14.1503965 120.5821418 -14.1503965 120.5821418 -13.49559021 119.01982117 C-10.36102322 115.64994093 -9.70614934 115.64968544 -5.29998779 115.39199829 C-2.94033366 115.37456148 -0.58029698 115.39065291 1.77905273 115.43237305 C3.06710815 115.43149689 4.35516357 115.43062073 5.68225098 115.42971802 C9.21132993 115.42799656 12.73918511 115.4632679 16.26797962 115.50516176 C19.95680853 115.54267233 23.64566557 115.54619432 27.33465576 115.55331421 C34.31882188 115.57196233 41.30242443 115.62119811 48.28634238 115.68141115 C56.23783652 115.74847798 64.1893576 115.78146559 72.14106417 115.81158376 C88.49696058 115.87429784 104.85229021 115.97983129 121.20776367 116.11352539 C119.83077063 120.39146093 118.25388008 124.08359416 116.00463867 127.98071289 C115.03892944 129.66245605 115.03892944 129.66245605 114.05371094 131.37817383 C113.35519574 132.58170207 112.65654339 133.78515071 111.95776367 134.98852539 C111.23720712 136.23860713 110.51707926 137.48893607 109.79736328 138.73950195 C104.57219893 147.80665404 99.29428989 156.84339529 94.00756836 165.87475586 C90.85776911 171.26085836 87.74677339 176.66419309 84.70776367 182.11352539 C72.30810525 204.32450774 59.24610104 226.19927304 46.07104492 247.95727539 C45.40129639 249.06530518 44.73154785 250.17333496 44.04150391 251.31494141 C42.78342075 253.39345222 41.52153346 255.46966786 40.25488281 257.54296875 C37.29704002 262.43043408 34.53600046 267.34761854 32.0012207 272.46923828 C31.47416534 273.53163223 30.94710999 274.59402618 30.40408325 275.68861389 C29.81190506 276.88894508 29.81190506 276.88894508 29.20776367 278.11352539 C9.79618457 278.20727408 -9.61534811 278.27765341 -29.02710724 278.32077408 C-38.04183046 278.34133452 -47.05641242 278.36932928 -56.07104492 278.4152832 C-63.93497905 278.45535184 -71.79881079 278.48100548 -79.66284418 278.48987937 C-83.82068223 278.49506049 -87.97822754 278.50709919 -92.13597107 278.53644562 C-96.06271972 278.5639327 -99.98905973 278.57190454 -103.91589546 278.56595612 C-105.34437354 278.56704169 -106.77286769 278.57479514 -108.20126152 278.59034729 C-121.33614981 278.72614139 -134.46668407 276.65730695 -146.16723633 270.36352539 C-146.82731689 270.01918457 -147.48739746 269.67484375 -148.16748047 269.32006836 C-165.9376869 259.76002336 -178.72499165 243.28550886 -184.79223633 224.11352539 C-192.68360981 190.53553294 -179.06879889 166.59244908 -162.55786133 138.53930664 C-158.623104 131.84506897 -154.76317138 125.10907118 -150.91723633 118.36352539 C-150.4197287 117.49135376 -150.4197287 117.49135376 -149.91217041 116.6015625 C-148.221501 113.63764512 -146.531544 110.67332263 -144.84204102 107.70874023 C-142.77842231 104.08835438 -140.71152157 100.46984974 -138.64379883 96.85180664 C-138.30319427 96.25564545 -137.96258972 95.65948425 -137.61166382 95.04525757 C-135.91648567 92.07860773 -134.2197933 89.11284096 -132.52026367 86.14868164 C-129.49467219 80.86678014 -126.48549669 75.57852892 -123.54223633 70.25024414 C-106.38836891 39.3237608 -83.43677055 14.74119652 -48.79223633 4.11352539 C-47.84864258 3.80672852 -46.90504883 3.49993164 -45.93286133 3.18383789 C-31.21552398 -1.2824061 -15.20423337 -0.02406137 0 0 Z " fill="#AEADAD" transform="translate(562.792236328125,335.886474609375)"/>
<path d="M0 0 C13.28355044 -0.06982287 26.56705649 -0.12297425 39.85075378 -0.15543652 C46.02036061 -0.17102472 52.18984094 -0.19213669 58.359375 -0.22631836 C64.3246076 -0.25915746 70.2897193 -0.27690435 76.2550354 -0.28463173 C78.5193573 -0.29013148 80.78367335 -0.30086975 83.04794312 -0.31719017 C108.71077461 -0.49463558 133.0221305 2.41899214 152.2109375 21.15234375 C168.47197664 37.75500136 174.7055216 56.65513975 174.53881836 79.56738281 C173.80383489 103.9342031 162.80824298 125.59066753 146 143 C139.94604166 148.38129631 127.54209366 158 119 158 C119 158.66 119 159.32 119 160 C106.15713874 163.62252847 93.43457997 163.3324817 80.18873405 163.19673347 C76.20782864 163.15950618 72.22727041 163.14642453 68.24623108 163.14268494 C56.93894572 163.12855354 45.63223722 163.09306599 34.32543945 162.9831543 C28.0525716 162.9224338 21.78062049 162.89734743 15.50746351 162.9120931 C12.1987655 162.91830111 8.89298512 162.9003487 5.58460808 162.8491993 C1.90505197 162.79394666 -1.76965869 162.80021703 -5.44946289 162.82055664 C-6.53576492 162.78924149 -7.62206696 162.75792633 -8.74128723 162.72566223 C-11.80574664 162.78003256 -14.12899095 162.91872509 -17 164 C-19.73579934 167.03738096 -21.34414508 170.29007286 -23 174 C-25.38759701 177.89355483 -27.81498443 181.76096045 -30.25 185.625 C-30.87390625 186.62917969 -31.4978125 187.63335938 -32.140625 188.66796875 C-32.73875 189.61542969 -33.336875 190.56289063 -33.953125 191.5390625 C-34.49098633 192.39709473 -35.02884766 193.25512695 -35.58300781 194.13916016 C-36.28441895 195.06027588 -36.28441895 195.06027588 -37 196 C-37.66 196 -38.32 196 -39 196 C-39.08507812 196.69996094 -39.17015625 197.39992188 -39.2578125 198.12109375 C-40.17538496 201.68030902 -41.79020822 204.04222473 -43.875 207.0625 C-44.57367187 208.08472656 -45.27234375 209.10695313 -45.9921875 210.16015625 C-47.19349695 211.8592846 -48.41394454 213.54547832 -49.671875 215.203125 C-51.47532546 217.64308738 -52.66352698 220.27565115 -54 223 C-55.64245069 226.01362575 -57.31799819 229.00829718 -59 232 C-59.66 232 -60.32 232 -61 232 C-61.24878906 232.68449219 -61.49757813 233.36898437 -61.75390625 234.07421875 C-63.21199971 237.49776735 -65.00994523 240.63999243 -66.9375 243.8125 C-67.28490234 244.40998047 -67.63230469 245.00746094 -67.99023438 245.62304688 C-69.02734375 247.33203125 -69.02734375 247.33203125 -71 250 C-71.99 250 -72.98 250 -74 250 C-74.0515625 250.804375 -74.103125 251.60875 -74.15625 252.4375 C-75.31092789 257.31280665 -77.76166927 260.85062257 -80.5 265 C-81.3202063 266.27000854 -81.3202063 266.27000854 -82.15698242 267.56567383 C-83.76276288 270.04947219 -85.3804297 272.5251802 -87 275 C-88.4422412 277.22615682 -89.87743293 279.45669784 -91.3125 281.6875 C-92.01375 282.77160156 -92.715 283.85570312 -93.4375 284.97265625 C-95.57825747 288.31227335 -97.66569609 291.68348953 -99.75 295.05859375 C-100.41862061 296.13858643 -101.08724121 297.2185791 -101.77612305 298.33129883 C-103.11300269 300.4936107 -104.44535065 302.65873225 -105.77270508 304.8269043 C-106.39040771 305.8250415 -107.00811035 306.82317871 -107.64453125 307.8515625 C-108.19471924 308.74697754 -108.74490723 309.64239258 -109.31176758 310.56494141 C-111.00785785 313.01133394 -112.87452421 314.92689203 -115 317 C-115.28232863 302.62990805 -115.49209378 288.26025566 -115.62174606 273.88794422 C-115.68320897 267.21194904 -115.76828482 260.53804415 -115.90527344 253.86303711 C-116.03696266 247.404837 -116.10767849 240.94842936 -116.13852692 234.48898888 C-116.16047046 232.04152943 -116.20331492 229.59415315 -116.26876068 227.14747047 C-116.70138067 210.28240683 -114.1088582 199.06168581 -104.44094944 185.10655499 C-102.41417996 182.14357708 -100.64300529 179.06941912 -98.85546875 175.95703125 C-97.63409376 173.90808986 -96.41144281 171.85990853 -95.1875 169.8125 C-87.98894945 157.71502009 -80.92816893 145.54143899 -73.91601562 133.33496094 C-70.8449718 127.9895916 -67.76952976 122.64676328 -64.69143677 117.30545044 C-63.70867068 115.59925475 -62.72724528 113.89228705 -61.74584961 112.18530273 C-61.15296143 111.15606689 -60.56007324 110.12683105 -59.94921875 109.06640625 C-59.42674561 108.15834229 -58.90427246 107.25027832 -58.3659668 106.31469727 C-57.30022034 104.50873799 -56.16319248 102.74478871 -55 101 C-52.49611473 100.62641239 -52.49611473 100.62641239 -49.27059937 100.62818909 C-47.44111755 100.61805283 -47.44111755 100.61805283 -45.57467651 100.60771179 C-44.21563583 100.615266 -42.85659653 100.62307175 -41.49755859 100.63110352 C-40.07183544 100.62863657 -38.64611409 100.62479924 -37.22039795 100.61968994 C-34.14502311 100.61133686 -31.06983332 100.61217242 -27.99445724 100.61987495 C-23.12769736 100.63144103 -18.26117628 100.61930795 -13.3944397 100.60325623 C-1.30057226 100.56702587 10.79329028 100.56082759 22.88720703 100.56335449 C32.27482806 100.56506712 41.66225453 100.55788872 51.04982126 100.52337593 C55.88317931 100.5066093 60.71606273 100.50835396 65.54941869 100.52419865 C68.56540492 100.53001384 71.5811684 100.51922211 74.59711456 100.50395203 C75.9902295 100.50023915 77.38338245 100.50329515 78.77646255 100.51382256 C87.09066925 100.57243632 94.11695709 100.56528855 100.51014137 94.58812809 C105.02772784 89.53840596 106.44126622 85.03505378 106.2421875 78.41015625 C105.7615186 73.62672542 105.11173302 68.7456993 101.2421875 65.546875 C99.13106126 64.2852287 99.13106126 64.2852287 96 63 C96 62.34 96 61.68 96 61 C53.43 60.67 10.86 60.34 -33 60 C-31.56583593 56.41458981 -30.17515532 53.35230209 -28.3046875 50.02734375 C-27.76094482 49.05804932 -27.21720215 48.08875488 -26.65698242 47.09008789 C-26.06892822 46.04973389 -25.48087402 45.00937988 -24.875 43.9375 C-24.26696533 42.85654053 -23.65893066 41.77558105 -23.0324707 40.66186523 C-17.42152604 30.7046244 -11.75318622 20.77992409 -6.06787109 10.86499023 C-5.42027832 9.73520752 -4.77268555 8.6054248 -4.10546875 7.44140625 C-3.52949951 6.43795166 -2.95353027 5.43449707 -2.36010742 4.40063477 C-1.53959248 2.95239865 -0.74439675 1.4887935 0 0 Z " fill="#B61526" transform="translate(705,451)"/>
<path d="M0 0 C0.69159714 -0.00671722 1.38319427 -0.01343445 2.0957489 -0.02035522 C4.37795231 -0.03932379 6.65986137 -0.04325903 8.94213867 -0.04541016 C10.53391133 -0.05183974 12.12568281 -0.05856822 13.717453 -0.06558228 C17.05385069 -0.07755278 20.39014486 -0.08126342 23.7265625 -0.08007812 C27.99032826 -0.07987514 32.25342595 -0.10715635 36.51703358 -0.14162254 C39.80542515 -0.16392341 43.09365688 -0.16791467 46.38211632 -0.16685867 C47.95331813 -0.16921064 49.52452462 -0.17801138 51.09565163 -0.19352341 C53.29991227 -0.21324581 55.5027448 -0.20732218 57.70703125 -0.1953125 C58.95849442 -0.19816254 60.20995758 -0.20101257 61.49934387 -0.20394897 C65.95946057 0.41760071 68.31874422 1.79485684 72.04760742 4.29052734 C75.36594983 8.97065041 74.3992169 14.8533164 73.61938477 20.25878906 C73.03322233 23.59127836 72.39472689 26.90930955 71.73510742 30.22802734 C71.26982855 32.62612844 70.8062911 35.02456806 70.34448242 37.42333984 C70.11954102 38.59026367 69.89459961 39.7571875 69.6628418 40.95947266 C69.11667333 43.91658479 68.62959535 46.87095574 68.18823242 49.84521484 C68.00514526 51.06736694 68.00514526 51.06736694 67.81835938 52.31420898 C67.60412169 53.78562165 67.40117948 55.25874725 67.21240234 56.73364258 C66.32429918 62.72889263 63.93725224 66.62584025 59.42260742 70.60302734 C55.48912368 73.39787106 52.61950561 73.44937612 47.92333984 73.4675293 C47.18980789 73.47410049 46.45627594 73.48067169 45.70051575 73.48744202 C43.26803489 73.50718551 40.83561581 73.51884001 38.40307617 73.52880859 C37.15747642 73.53492188 37.15747642 73.53492188 35.88671303 73.54115868 C31.4913724 73.5620241 27.09606305 73.57632364 22.70068359 73.58569336 C18.16095076 73.59675771 13.6217081 73.63115622 9.08214855 73.67086506 C5.59140614 73.6970124 2.10078084 73.70538351 -1.39005089 73.70897484 C-3.06339516 73.71384585 -4.73673402 73.72547454 -6.40998268 73.74401283 C-8.75369706 73.76836478 -11.09613921 73.76744707 -13.43994141 73.76049805 C-14.12947906 73.77330811 -14.81901672 73.78611816 -15.52944946 73.79931641 C-19.0145721 73.76170707 -20.8884669 73.33103021 -23.85942078 71.44865417 C-27.51416904 67.68013217 -27.12617648 63.98932925 -27.07263184 59.03964233 C-26.88237947 54.68976834 -26.25797871 50.44791692 -25.56176758 46.15380859 C-25.41588196 45.23012985 -25.26999634 44.30645111 -25.11968994 43.3547821 C-24.81100504 41.41889058 -24.4981908 39.48365329 -24.18139648 37.54907227 C-23.70231728 34.60256425 -23.24674521 31.65302205 -22.79223633 28.70263672 C-22.48767039 26.8111309 -22.1817278 24.91984611 -21.87426758 23.02880859 C-21.67556061 21.71919914 -21.67556061 21.71919914 -21.47283936 20.38313293 C-20.35257864 13.74946465 -18.5239416 8.66921019 -13.45239258 3.97802734 C-8.72923968 0.78989914 -5.79563843 0.03537302 0 0 Z " fill="#BF192B" transform="translate(952.952392578125,802.70947265625)"/>
<path d="M0 0 C10.03169132 -0.09287433 20.06327956 -0.16385329 30.09531403 -0.20724869 C34.75412738 -0.22808137 39.41264556 -0.25631961 44.07128906 -0.30175781 C48.57115054 -0.3453703 53.07072893 -0.36916957 57.57078552 -0.37950897 C59.28352817 -0.38687279 60.99625615 -0.40125255 62.70887756 -0.42292023 C79.56111123 -0.62755958 79.56111123 -0.62755958 86 4 C89.95501742 9.93252613 88.09582925 17.871161 86.82226562 24.59765625 C86.65404297 25.43167969 86.48582031 26.26570312 86.3125 27.125 C86.16361328 27.96675781 86.01472656 28.80851563 85.86132812 29.67578125 C84.55349291 36.29188883 82.34289558 42.37033817 76.89453125 46.65625 C71.14487129 48.98631858 66.17961425 49.46443865 60 49 C64.83446294 54.63453252 69.83503566 60.10189472 74.91113281 65.51831055 C77.1590726 67.93183842 79.16599677 70.24899515 81 73 C61.37141015 75.53618256 61.37141015 75.53618256 54.48779297 71.54248047 C48.99908681 66.92672956 44.47500376 61.05425062 40.74462891 54.94360352 C38.51205558 51.67730787 37.03536168 50.22732752 33.09228516 49.36157227 C29.58460003 49.08652456 26.14302418 49.03010216 22.625 49.0625 C21.41199219 49.04638672 20.19898438 49.03027344 18.94921875 49.01367188 C15.96499416 48.97842513 12.98422633 48.97488239 10 49 C9.94593994 49.5561499 9.89187988 50.1122998 9.83618164 50.68530273 C9.05430194 58.26001244 7.54638076 65.53703198 6 73 C0.06 73 -5.88 73 -12 73 C-11.29697417 64.65462865 -9.95951531 56.4837654 -8.49609375 48.2421875 C-8.25058166 46.84406022 -8.00539382 45.44587597 -7.76051331 44.04763794 C-7.12094692 40.40083535 -6.47703313 36.75481397 -5.83215332 33.10894775 C-5.17253987 29.37518471 -4.51712041 25.64068573 -3.86132812 21.90625 C-2.5782794 14.60344766 -1.2906285 7.30146701 0 0 Z " fill="#B41627" transform="translate(813,803)"/>
<path d="M0 0 C18 0 18 0 22.8125 4.5625 C23.83210646 6.1189523 24.84997112 7.67698045 25.83056641 9.25830078 C28.07039133 12.59419035 30.82893836 15.50761908 33.5 18.5 C41.6068682 27.78035374 49.32595184 37.36039182 57 47 C61.38207235 45.41410715 63.86885586 41.97346057 66.75 38.5 C67.28367187 37.86707031 67.81734375 37.23414063 68.3671875 36.58203125 C71.94173404 32.32538525 75.42135362 27.99807753 78.8671875 23.63671875 C82.9704813 18.56396543 87.19828823 13.56491144 91.57910156 8.72900391 C93.06135296 7.03820772 93.06135296 7.03820772 94.06933594 5.01708984 C95.2421875 3.07421875 95.2421875 3.07421875 99 0 C104.94 0 110.88 0 117 0 C117 24.42 117 48.84 117 74 C110.73 74 104.46 74 98 74 C97.67 59.48 97.34 44.96 97 30 C91.18774622 36.39347916 85.62838029 42.60919698 80.23046875 49.296875 C77.26113452 52.89543767 74.14916535 56.34547311 70.97265625 59.76171875 C69.30005935 61.65953662 68.0346092 63.5024331 66.6875 65.625 C62.97052576 68.90976793 60.23846572 69.3937567 55.32421875 69.1640625 C48.56624586 66.79758081 44.64415196 60.50116758 40.46484375 54.94482422 C38.48703354 52.31895153 36.40338804 49.78630609 34.3125 47.25 C33.61769531 46.39019531 32.92289063 45.53039062 32.20703125 44.64453125 C28.9251848 40.71212408 25.45567632 36.96544197 21.96875 33.21484375 C20 31 20 31 19 29 C18.67 43.85 18.34 58.7 18 74 C12.06 74 6.12 74 0 74 C0 49.58 0 25.16 0 0 Z " fill="#C2C1C1" transform="translate(523,803)"/>
<path d="M0 0 C10.04899719 -0.06961479 20.09793667 -0.12286953 30.1471262 -0.15543652 C34.81374716 -0.17106973 39.48020273 -0.19226508 44.14672852 -0.22631836 C48.6530564 -0.25899555 53.15922551 -0.27687064 57.66566277 -0.28463173 C59.38200313 -0.29016025 61.09833513 -0.30095612 62.81460762 -0.31719017 C65.22498242 -0.3390759 67.6347073 -0.34196233 70.04516602 -0.34057617 C70.74935669 -0.351362 71.45354736 -0.36214783 72.17907715 -0.3732605 C77.85758184 -0.33809429 82.81096096 0.79755868 86.9140625 4.92578125 C90.10597483 11.02256343 87.78779157 19.12591617 86.6875 25.625 C86.57003418 26.32906982 86.45256836 27.03313965 86.33154297 27.75854492 C83.98054004 40.62900985 83.98054004 40.62900985 79.125 44.875 C74.2694156 48.17679739 70.70082573 49.25134917 64.83276367 49.22705078 C63.61187546 49.22689972 62.39098724 49.22674866 61.13310242 49.22659302 C59.82460831 49.21627045 58.5161142 49.20594788 57.16796875 49.1953125 C55.80748198 49.19157922 54.4469925 49.18873373 53.08650208 49.18673706 C49.51738983 49.17912538 45.94844209 49.15949834 42.37939453 49.1373291 C38.73277003 49.11681735 35.08611877 49.10772398 31.43945312 49.09765625 C24.29290173 49.07624991 17.14646164 49.04214397 10 49 C9.90912109 49.99906372 9.90912109 49.99906372 9.81640625 51.01831055 C9.73261719 51.90301025 9.64882813 52.78770996 9.5625 53.69921875 C9.48128906 54.57151123 9.40007813 55.44380371 9.31640625 56.3425293 C8.92988089 59.58892481 8.2626683 62.71873278 7.5 65.89453125 C6.94069685 68.24972188 6.47473648 70.62631759 6 73 C0.06 73 -5.88 73 -12 73 C-12 67.84726998 -11.81513103 64.34974552 -10.75 59.5 C-9.36056641 52.96203155 -8.18165432 46.4018569 -7.0625 39.8125 C-5.62582282 31.39071927 -4.05644606 23.00833391 -2.30688477 14.64575195 C-2.15018311 13.88738037 -1.99348145 13.12900879 -1.83203125 12.34765625 C-1.69514893 11.69804932 -1.5582666 11.04844238 -1.41723633 10.37915039 C-1.03588261 8.20460857 -0.74349873 6.04199543 -0.47392273 3.8513031 C-0.31752823 2.58037308 -0.16113373 1.30944305 0 0 Z " fill="#A81322" transform="translate(689,803)"/>
<path d="M0 0 C0.83939117 -0.00014603 1.67878235 -0.00029205 2.54360962 -0.0004425 C5.31393023 0.00025333 8.08418334 0.00803032 10.85449219 0.01586914 C12.77691613 0.01773449 14.69934055 0.01915784 16.62176514 0.02015686 C21.67864294 0.02397282 26.73549196 0.03379527 31.7923584 0.04486084 C36.9536907 0.05509474 42.11502766 0.05965873 47.27636719 0.06469727 C57.40138186 0.07541835 67.52636763 0.09300771 77.65136719 0.11352539 C77.65136719 5.39352539 77.65136719 10.67352539 77.65136719 16.11352539 C75.29375244 16.13858154 72.9361377 16.1636377 70.50708008 16.18945312 C62.7357895 16.27276078 54.9645674 16.36146775 47.19336796 16.45286465 C42.4796036 16.50813587 37.76583309 16.56156245 33.05200195 16.61083984 C28.50675815 16.65842163 23.96159223 16.71076193 19.41644096 16.76646614 C17.67844 16.78691782 15.94041765 16.80562615 14.20237923 16.82259941 C11.77652342 16.84658143 9.35081618 16.87664399 6.92504883 16.90820312 C5.83640533 16.91683632 5.83640533 16.91683632 4.72576904 16.92564392 C1.40395702 16.68992409 1.40395702 16.68992409 -1.34863281 18.11352539 C-1.43725273 20.92515919 -1.46385636 23.71210794 -1.44628906 26.52368164 C-1.44416664 27.78673378 -1.44416664 27.78673378 -1.44200134 29.07530212 C-1.43638545 31.77557874 -1.4238303 34.47577367 -1.41113281 37.17602539 C-1.40611986 39.00219607 -1.4015566 40.82836805 -1.39746094 42.65454102 C-1.38641085 47.14090081 -1.3691356 51.62719923 -1.34863281 56.11352539 C1.31796776 57.44682568 3.40025462 57.27511998 6.38623047 57.31884766 C7.58732452 57.33879288 8.78841858 57.3587381 10.02590942 57.37928772 C11.32801361 57.39600021 12.6301178 57.41271271 13.97167969 57.42993164 C15.31404257 57.45050164 16.65639898 57.47149812 17.99874878 57.49290466 C21.53325157 57.5481207 25.06781276 57.59753197 28.60241699 57.64575195 C32.20863041 57.69597043 35.81475891 57.75165468 39.42089844 57.80688477 C46.49764917 57.91446059 53.57447817 58.01540178 60.65136719 58.11352539 C60.65136719 53.49352539 60.65136719 48.87352539 60.65136719 44.11352539 C50.75136719 44.11352539 40.85136719 44.11352539 30.65136719 44.11352539 C30.65136719 39.49352539 30.65136719 34.87352539 30.65136719 30.11352539 C46.49136719 30.11352539 62.33136719 30.11352539 78.65136719 30.11352539 C78.75449219 36.11540039 78.85761719 42.11727539 78.96386719 48.30102539 C79.00938721 50.18716553 79.05490723 52.07330566 79.10180664 54.01660156 C79.11641777 55.52154769 79.12915697 57.02651366 79.13964844 58.53149414 C79.16522827 59.30481079 79.19080811 60.07812744 79.21716309 60.87487793 C79.22060147 65.14603297 79.03615291 66.63782511 76.24584961 70.08740234 C72.05708152 73.35855943 68.97536962 73.28312068 63.82446289 73.32226562 C63.01611496 73.33204941 62.20776703 73.34183319 61.37492371 73.35191345 C58.69234875 73.38189381 56.00982385 73.40326264 53.32714844 73.42211914 C51.95290238 73.43197688 51.95290238 73.43197688 50.55089378 73.44203377 C45.69939086 73.47464238 40.84791001 73.49908696 35.99633789 73.51855469 C31.98331662 73.53635494 27.97099974 73.57115203 23.95825195 73.62109375 C19.1123759 73.68133577 14.2671521 73.71203633 9.42091942 73.72172737 C7.57613732 73.73027832 5.73137248 73.74908766 3.88680458 73.77847099 C1.29884963 73.81746899 -1.28657584 73.81841 -3.87475586 73.81054688 C-5.01048538 73.84054779 -5.01048538 73.84054779 -6.16915894 73.87115479 C-11.37429219 73.80044335 -14.21105356 72.35580712 -17.95627117 68.73685646 C-21.0814478 65.09326547 -21.59850689 61.63510816 -21.63916016 56.95947266 C-21.65829971 55.45750084 -21.65829971 55.45750084 -21.67782593 53.92518616 C-21.68005157 52.85425217 -21.68227722 51.78331818 -21.68457031 50.67993164 C-21.69122711 49.56923813 -21.69788391 48.45854462 -21.70474243 47.31419373 C-21.71485493 44.96826837 -21.71955989 42.62231432 -21.71923828 40.27636719 C-21.72361294 36.69230712 -21.75995335 33.10947721 -21.79785156 29.52563477 C-21.80371971 27.24373793 -21.80768911 24.96183525 -21.80957031 22.67993164 C-21.82394135 21.61102188 -21.83831238 20.54211212 -21.8531189 19.44081116 C-21.81567346 13.32816526 -21.4329714 9.76265948 -17.34863281 5.11352539 C-11.80873458 -0.01088048 -7.30716523 -0.03326394 0 0 Z " fill="#A8A7A7" transform="translate(289.3486328125,802.886474609375)"/>
<path d="M0 0 C22.10378464 -2.07497316 22.10378464 -2.07497316 27.55078125 2.14453125 C29.82283127 4.71998097 31.76194671 7.26384524 33.65283203 10.11621094 C36.26943574 13.77509354 39.46502579 16.93699162 42.5625 20.1875 C43.17174316 20.84693604 43.78098633 21.50637207 44.40869141 22.18579102 C45.26019775 23.10509399 45.26019775 23.10509399 46.12890625 24.04296875 C46.63494385 24.58977295 47.14098145 25.13657715 47.66235352 25.69995117 C48.9891865 27.12070763 48.9891865 27.12070763 51 28 C51.2379126 27.43539062 51.4758252 26.87078125 51.72094727 26.2890625 C53.28275637 23.49396378 55.1769047 21.6152784 57.46484375 19.375 C58.34720703 18.50359375 59.22957031 17.6321875 60.13867188 16.734375 C61.06228516 15.83203125 61.98589844 14.9296875 62.9375 14 C64.76137488 12.21063431 66.58307891 10.41905256 68.40234375 8.625 C69.61651978 7.43777344 69.61651978 7.43777344 70.85522461 6.2265625 C73.03376328 4.11252497 73.03376328 4.11252497 74.44091797 1.73535156 C76 0 76 0 78.54370117 -0.45410156 C79.53345947 -0.4331543 80.52321777 -0.41220703 81.54296875 -0.390625 C82.61611328 -0.37773438 83.68925781 -0.36484375 84.79492188 -0.3515625 C85.91447266 -0.31804688 87.03402344 -0.28453125 88.1875 -0.25 C89.31865234 -0.23195313 90.44980469 -0.21390625 91.61523438 -0.1953125 C94.41100376 -0.14812652 97.20507972 -0.08230595 100 0 C100 0.66 100 1.32 100 2 C98.51367188 3.44750977 98.51367188 3.44750977 96.46875 5.12890625 C91.37980607 9.45875683 86.92331105 14.24862854 82.45483398 19.20678711 C78.9808491 23.01200961 75.57024167 26.4448657 71.44140625 29.5390625 C65.46807983 34.21768746 60.79907537 38.11090167 59.21435547 45.82373047 C58.09053486 55.18430331 58.49869119 64.6118531 59 74 C52.73 74 46.46 74 40 74 C40.18755859 70.83083984 40.18755859 70.83083984 40.37890625 67.59765625 C41.47076852 51.09434347 41.47076852 51.09434347 35.39453125 36.37109375 C31.94703691 32.75552212 28.14578019 29.694425 24.13916016 26.72216797 C21.21951846 24.3716598 18.9059639 21.65919126 16.50537109 18.79394531 C14.74282029 16.69351987 12.84579707 14.77982896 10.875 12.875 C8.48481343 10.52650273 6.23644782 8.16454893 4.125 5.5625 C2.25835959 2.96125481 2.25835959 2.96125481 0 2 C0 1.34 0 0.68 0 0 Z " fill="#BCBBBA" transform="translate(397,803)"/>
<path d="M0 0 C1.01452744 -0.00637985 2.02905487 -0.0127597 3.07432556 -0.01933289 C4.17845291 -0.02044571 5.28258026 -0.02155853 6.42016602 -0.02270508 C8.10892601 -0.02769768 8.10892601 -0.02769768 9.83180237 -0.03279114 C12.21843048 -0.03786527 14.60506572 -0.04019931 16.99169922 -0.04003906 C20.65482201 -0.04222484 24.31764349 -0.06037373 27.98071289 -0.0793457 C30.2938629 -0.08227958 32.60701434 -0.08426442 34.92016602 -0.08520508 C36.02226913 -0.09239059 37.12437225 -0.09957611 38.25987244 -0.10697937 C39.78639183 -0.10236443 39.78639183 -0.10236443 41.34375 -0.09765625 C42.24230209 -0.09908127 43.14085419 -0.10050629 44.06663513 -0.10197449 C46.23657227 0.14526367 46.23657227 0.14526367 48.23657227 2.14526367 C49.29372172 10.33911243 47.5442433 18.62917884 45.98657227 26.64526367 C45.78161133 27.81057617 45.57665039 28.97588867 45.36547852 30.17651367 C45.1527832 31.29026367 44.94008789 32.40401367 44.72094727 33.55151367 C44.53242187 34.55504883 44.34389648 35.55858398 44.1496582 36.5925293 C43.03452825 39.71012256 42.04427142 40.45249599 39.23657227 42.14526367 C36.83285522 42.51948547 36.83285522 42.51948547 34.13256836 42.51757812 C32.6111171 42.52692131 32.6111171 42.52692131 31.05892944 42.53645325 C29.97028595 42.5272435 28.88164246 42.51803375 27.76000977 42.50854492 C26.63841461 42.50904343 25.51681946 42.50954193 24.36123657 42.51005554 C21.99251532 42.50771635 19.62379153 42.49799704 17.25512695 42.48144531 C13.61850928 42.45780876 9.98262244 42.46089123 6.34594727 42.4675293 C4.04646371 42.4619541 1.74698324 42.45484522 -0.55249023 42.44604492 C-2.19152817 42.44741203 -2.19152817 42.44741203 -3.86367798 42.44880676 C-5.37567276 42.43450874 -5.37567276 42.43450874 -6.91821289 42.41992188 C-7.80771637 42.41531448 -8.69721985 42.41070709 -9.61367798 42.40596008 C-11.76342773 42.14526367 -11.76342773 42.14526367 -13.76342773 40.14526367 C-13.8059082 38.1953125 -13.8059082 38.1953125 -13.50561523 35.78979492 C-13.39572266 34.89341309 -13.28583008 33.99703125 -13.17260742 33.07348633 C-13.03757812 32.10717285 -12.90254883 31.14085937 -12.76342773 30.14526367 C-12.62582031 29.15961426 -12.48821289 28.17396484 -12.34643555 27.15844727 C-11.8889308 24.04473548 -11.39361271 20.9390728 -10.88842773 17.83276367 C-10.72729492 16.77508789 -10.56616211 15.71741211 -10.40014648 14.62768555 C-10.15071289 13.0953125 -10.15071289 13.0953125 -9.89624023 11.53198242 C-9.7507373 10.61634521 -9.60523438 9.70070801 -9.45532227 8.75732422 C-7.85737223 2.72469634 -6.093825 0.02587387 0 0 Z " fill="#090709" transform="translate(958.763427734375,818.854736328125)"/>
<path d="M0 0 C7.06580552 -0.0506353 14.1315644 -0.0857062 21.19750977 -0.10986328 C23.60214995 -0.11993201 26.00677786 -0.13358785 28.41137695 -0.15087891 C31.86412584 -0.17508874 35.3167131 -0.18647432 38.76953125 -0.1953125 C39.84773636 -0.20563507 40.92594147 -0.21595764 42.03681946 -0.22659302 C43.53803596 -0.22681961 43.53803596 -0.22681961 45.06958008 -0.22705078 C45.95116287 -0.231492 46.83274567 -0.23593323 47.74104309 -0.24050903 C50 0 50 0 53 2 C52.96667299 3.72997483 52.89697108 5.45926731 52.8125 7.1875 C52.77769531 8.15042969 52.74289062 9.11335937 52.70703125 10.10546875 C51.7056177 14.20517835 50.40655005 15.4749971 47 18 C43.18729195 18.69637066 39.43873798 18.58167114 35.57421875 18.48828125 C34.47149124 18.48120651 33.36876373 18.47413177 32.23262024 18.46684265 C28.71688483 18.43889489 25.20275257 18.37615165 21.6875 18.3125 C19.30145532 18.28741781 16.91538563 18.26460451 14.52929688 18.24414062 C8.68565263 18.18906692 2.84294085 18.10543545 -3 18 C-2.6919856 15.37440156 -2.37879818 12.74960194 -2.0625 10.125 C-1.97548828 9.37863281 -1.88847656 8.63226562 -1.79882812 7.86328125 C-1.11328125 2.2265625 -1.11328125 2.2265625 0 0 Z " fill="#0B0709" transform="translate(829,819)"/>
<path d="M0 0 C7.2265322 -0.05058332 14.45301899 -0.08568412 21.6796875 -0.10986328 C24.13966579 -0.11993983 26.59963206 -0.13360131 29.05957031 -0.15087891 C32.58922285 -0.17505461 36.11871747 -0.1864664 39.6484375 -0.1953125 C40.75367767 -0.20563507 41.85891785 -0.21595764 42.99765015 -0.22659302 C44.01855743 -0.22674408 45.03946472 -0.22689514 46.09130859 -0.22705078 C46.99287689 -0.231492 47.89444519 -0.23593323 48.82333374 -0.24050903 C51 0 51 0 53 2 C53.15234375 4.42578125 53.15234375 4.42578125 52.9375 7.3125 C52.88464844 8.25738281 52.83179688 9.20226562 52.77734375 10.17578125 C51.67398041 14.18448325 50.35665671 15.50386519 47 18 C43.18742811 18.69686509 39.43867479 18.58166961 35.57421875 18.48828125 C34.47149124 18.48120651 33.36876373 18.47413177 32.23262024 18.46684265 C28.71688483 18.43889489 25.20275257 18.37615165 21.6875 18.3125 C19.30145532 18.28741781 16.91538563 18.26460451 14.52929688 18.24414062 C8.68565263 18.18906692 2.84294085 18.10543545 -3 18 C-2.41509121 11.85845775 -1.45933748 5.99320151 0 0 Z " fill="#0B0709" transform="translate(705,819)"/>
<path d="M0 0 C69.96 0 139.92 0 212 0 C212 1.32 212 2.64 212 4 C142.04 4 72.08 4 0 4 C0 2.68 0 1.36 0 0 Z " fill="#9F111D" transform="translate(319,933)"/>
<path d="M0 0 C69.96 0 139.92 0 212 0 C212 1.32 212 2.64 212 4 C142.04 4 72.08 4 0 4 C0 2.68 0 1.36 0 0 Z " fill="#B51626" transform="translate(724,933)"/>
<path d="M0 0 C4.29 0 8.58 0 13 0 C13 18.15 13 36.3 13 55 C8.71 55 4.42 55 0 55 C-1.66716684 53.33283316 -1.12744882 51.3269386 -1.12939453 49.03710938 C-1.13254669 47.97931274 -1.13569885 46.92151611 -1.13894653 45.83166504 C-1.13591019 44.10514709 -1.13591019 44.10514709 -1.1328125 42.34375 C-1.13376923 41.17114624 -1.13472595 39.99854248 -1.13571167 38.79040527 C-1.1363937 36.30541938 -1.13453784 33.82043171 -1.13037109 31.33544922 C-1.12502319 27.51656113 -1.13031536 23.69779065 -1.13671875 19.87890625 C-1.13605797 17.47135391 -1.13477682 15.06380163 -1.1328125 12.65625 C-1.13483673 11.50523804 -1.13686096 10.35422607 -1.13894653 9.16833496 C-1.13579437 8.11053833 -1.13264221 7.0527417 -1.12939453 5.96289062 C-1.12859894 5.02658813 -1.12780334 4.09028564 -1.12698364 3.12561035 C-1 1 -1 1 0 0 Z " fill="#9D0F1E" transform="translate(582,908)"/>
<path d="M0 0 C1.093125 0.00257813 2.18625 0.00515625 3.3125 0.0078125 C4.405625 0.00523437 5.49875 0.00265625 6.625 0 C9.3125 0.1328125 9.3125 0.1328125 10.3125 1.1328125 C10.41118509 2.78472646 10.44048837 4.44084467 10.44189453 6.09570312 C10.44504669 7.15349976 10.44819885 8.21129639 10.45144653 9.30114746 C10.4494223 10.45215942 10.44739807 11.60317139 10.4453125 12.7890625 C10.44626923 13.96166626 10.44722595 15.13427002 10.44821167 16.34240723 C10.4488937 18.82739312 10.44703784 21.31238079 10.44287109 23.79736328 C10.43752319 27.61625137 10.44281536 31.43502185 10.44921875 35.25390625 C10.44855797 37.66145859 10.44727682 40.06901087 10.4453125 42.4765625 C10.44733673 43.62757446 10.44936096 44.77858643 10.45144653 45.96447754 C10.44829437 47.02227417 10.44514221 48.0800708 10.44189453 49.16992188 C10.44070114 50.57437561 10.44070114 50.57437561 10.43948364 52.00720215 C10.3125 54.1328125 10.3125 54.1328125 9.3125 55.1328125 C7.31450428 55.23155066 5.31292842 55.26253049 3.3125 55.2578125 C2.219375 55.26039063 1.12625 55.26296875 0 55.265625 C-2.6875 55.1328125 -2.6875 55.1328125 -3.6875 54.1328125 C-3.78618509 52.48089854 -3.81548837 50.82478033 -3.81689453 49.16992188 C-3.82004669 48.11212524 -3.82319885 47.05432861 -3.82644653 45.96447754 C-3.82341019 44.23795959 -3.82341019 44.23795959 -3.8203125 42.4765625 C-3.82126923 41.30395874 -3.82222595 40.13135498 -3.82321167 38.92321777 C-3.8238937 36.43823188 -3.82203784 33.95324421 -3.81787109 31.46826172 C-3.81252319 27.64937363 -3.81781536 23.83060315 -3.82421875 20.01171875 C-3.82355797 17.60416641 -3.82227682 15.19661413 -3.8203125 12.7890625 C-3.82233673 11.63805054 -3.82436096 10.48703857 -3.82644653 9.30114746 C-3.82329437 8.24335083 -3.82014221 7.1855542 -3.81689453 6.09570312 C-3.81609894 5.15940063 -3.81530334 4.22309814 -3.81448364 3.25842285 C-3.62289207 0.05132454 -3.24302462 0.16026575 0 0 Z " fill="#A71220" transform="translate(663.6875,907.8671875)"/>
<path d="M0 0 C19.47 0 38.94 0 59 0 C59 3.3 59 6.6 59 10 C39.53 10 20.06 10 0 10 C0 6.7 0 3.4 0 0 Z " fill="#AB1323" transform="translate(598,930)"/>
<path d="M0 0 C-0.33 0.99 -0.66 1.98 -1 3 C-3.23046875 3.88671875 -3.23046875 3.88671875 -6.1875 4.6875 C-37.17907594 14.41826733 -57.29348017 41.23933421 -72 68.5625 C-74.54324798 73.27697831 -77.36802441 77.75103551 -80.27734375 82.24609375 C-82.53211602 85.85066166 -84.53093721 89.56846348 -86.53515625 93.31640625 C-87.95806989 95.92318403 -89.45687797 98.46286689 -91 101 C-93.06059884 104.38984525 -95.00242651 107.81534248 -96.875 111.3125 C-99.81277922 116.775055 -103.05496673 122.00710919 -106.36328125 127.25 C-108.10088713 129.94690285 -108.10088713 129.94690285 -109 133 C-109.66 133 -110.32 133 -111 133 C-111.33 134.65 -111.66 136.3 -112 138 C-112.66 138 -113.32 138 -114 138 C-113.41921503 134.30398418 -112.40940419 131.56292492 -110.55078125 128.32421875 C-109.78423218 126.9777124 -109.78423218 126.9777124 -109.00219727 125.60400391 C-108.16579712 124.16033447 -108.16579712 124.16033447 -107.3125 122.6875 C-106.44226196 121.16648682 -106.44226196 121.16648682 -105.55444336 119.61474609 C-100.85796795 111.4263105 -96.08736454 103.28067423 -91.31054688 95.13891602 C-87.04734528 87.85358605 -82.91181703 80.50354598 -78.8125 73.125 C-61.92646826 42.84337146 -42.19731248 12.98837499 -7.75 0.9375 C-4 0 -4 0 0 0 Z " fill="#D1D0D0" transform="translate(513,342)"/>
<path d="M0 0 C2.97 0 5.94 0 9 0 C9 12.87 9 25.74 9 39 C6.03 39 3.06 39 0 39 C-1.81565436 37.18434564 -1.12861899 34.68730038 -1.13894653 32.27111816 C-1.1369223 31.47008667 -1.13489807 30.66905518 -1.1328125 29.84375 C-1.13376923 29.02628296 -1.13472595 28.20881592 -1.13571167 27.36657715 C-1.13639345 25.63484622 -1.13453929 23.90311276 -1.13037109 22.17138672 C-1.12502279 19.51133518 -1.13031612 16.8514525 -1.13671875 14.19140625 C-1.13605797 12.51302046 -1.1347768 10.83463477 -1.1328125 9.15625 C-1.13483673 8.35521851 -1.13686096 7.55418701 -1.13894653 6.72888184 C-1.11495079 1.11495079 -1.11495079 1.11495079 0 0 Z " fill="#9E101D" transform="translate(569,916)"/>
<path d="M0 0 C2.97 0 5.94 0 9 0 C10.81565436 1.81565436 10.12861899 4.31269962 10.13894653 6.72888184 C10.1369223 7.52991333 10.13489807 8.33094482 10.1328125 9.15625 C10.13376923 9.97371704 10.13472595 10.79118408 10.13571167 11.63342285 C10.13639345 13.36515378 10.13453929 15.09688724 10.13037109 16.82861328 C10.12502279 19.48866482 10.13031612 22.1485475 10.13671875 24.80859375 C10.13605797 26.48697954 10.1347768 28.16536523 10.1328125 29.84375 C10.13483673 30.64478149 10.13686096 31.44581299 10.13894653 32.27111816 C10.11495079 37.88504921 10.11495079 37.88504921 9 39 C6.03 39 3.06 39 0 39 C0 26.13 0 13.26 0 0 Z " fill="#A61323" transform="translate(677,916)"/>
<path d="M0 0 C1.06006193 0.00184359 2.12012386 0.00368717 3.21230888 0.00558662 C4.4266964 0.0028373 5.64108391 0.00008797 6.89227104 -0.00274467 C8.24511626 0.00433406 9.59796049 0.01160368 10.95080376 0.01904488 C12.36979985 0.01960878 13.78879653 0.01929283 15.20779228 0.01815987 C19.0671057 0.01758454 22.92629554 0.02936777 26.78558016 0.04330778 C30.81614275 0.05578533 34.84670798 0.05698328 38.87728691 0.0593586 C46.51293027 0.06558214 54.14851655 0.08200474 61.78413475 0.10205758 C70.47566433 0.12438943 79.1671966 0.13540316 87.85874772 0.14544845 C105.7408652 0.16637024 123.6229295 0.20156315 141.50500298 0.24609566 C141.50500298 0.90609566 141.50500298 1.56609566 141.50500298 2.24609566 C93.98500298 2.24609566 46.46500298 2.24609566 -2.49499702 2.24609566 C-3.15499702 4.22609566 -3.81499702 6.20609566 -4.49499702 8.24609566 C-5.49516071 10.18323549 -6.54899949 12.09335317 -7.64734077 13.97656441 C-8.56483101 15.55147652 -8.56483101 15.55147652 -9.5008564 17.15820503 C-10.13829781 18.23908394 -10.77573921 19.31996284 -11.43249702 20.43359566 C-12.06607124 21.52607613 -12.69964546 22.61855659 -13.3524189 23.74414253 C-18.52223534 32.56707848 -18.52223534 32.56707848 -21.49499702 35.24609566 C-20.89902213 30.78799528 -19.19932379 27.58298684 -16.96765327 23.70312691 C-16.61867485 23.09345573 -16.26969643 22.48378456 -15.9101429 21.8556385 C-15.17456458 20.57381192 -14.43561096 19.293917 -13.69348335 18.01587105 C-12.55753392 16.05865922 -11.43270035 14.09538342 -10.30945015 12.13086128 C-3.53101461 0.34828393 -3.53101461 0.34828393 0 0 Z " fill="#E4344A" transform="translate(652.4949970245361,552.7539043426514)"/>
<path d="M0 0 C14.16162559 -0.11750445 28.32317412 -0.20497918 42.48518944 -0.25906086 C49.06289075 -0.28503184 55.64026201 -0.32019977 62.21777344 -0.37719727 C68.5785504 -0.43196478 74.93901211 -0.46151424 81.30000687 -0.47438622 C83.71342549 -0.48354633 86.12682903 -0.50143119 88.54011154 -0.52865028 C111.68181609 -0.77901967 132.39117632 2.18402477 149.82250977 18.74731445 C161.13823396 29.91910643 171.20110234 44.50952366 172.171875 60.90234375 C172.18520576 63.27855212 172.13890357 65.62835008 172 68 C171.67 68 171.34 68 171 68 C170.70867187 66.77925781 170.41734375 65.55851563 170.1171875 64.30078125 C167.90083004 55.30158199 165.48941383 46.97882767 161.33203125 38.6640625 C160.07491143 36.14982286 159.00632397 33.62311935 158 31 C157.34 31 156.68 31 156 31 C154.73828125 29.4609375 154.73828125 29.4609375 153.3125 27.375 C147.82665055 19.86665665 140.98473474 15.5828783 133 11 C132.23429688 10.48953125 131.46859375 9.9790625 130.6796875 9.453125 C127.33346076 7.63855306 123.92937263 6.78417382 120.25 5.9375 C119.58484375 5.77701172 118.9196875 5.61652344 118.234375 5.45117188 C116.90184598 5.13213368 115.5675187 4.82049611 114.23135281 4.51704979 C112.81316938 4.18842787 111.39842553 3.84428375 109.98911381 3.47948647 C104.11564507 2.02341782 98.55822109 1.69515882 92.52319336 1.68115234 C91.51726135 1.67110672 90.51132935 1.6610611 89.47491455 1.65071106 C86.17989628 1.62004342 82.88495865 1.60288974 79.58984375 1.5859375 C77.29341445 1.56721264 74.99699194 1.54763826 72.70057678 1.5272522 C66.67880261 1.47606432 60.65700616 1.43636727 54.63513184 1.39910889 C48.48130849 1.35898541 42.32757674 1.30793121 36.17382812 1.2578125 C24.11594988 1.16121126 12.05801976 1.0767561 0 1 C0 0.67 0 0.34 0 0 Z " fill="#EF485D" transform="translate(706,452)"/>
<path d="M0 0 C0.9724916 0.00092179 1.9449832 0.00184359 2.94694424 0.00279331 C4.05898724 0.00141865 5.17103024 0.00004398 6.31677151 -0.00137234 C7.54747372 0.00222294 8.77817593 0.00581821 10.04617214 0.00952244 C11.33378948 0.00937641 12.62140682 0.00923038 13.94804287 0.00907993 C17.48920685 0.00879197 21.03033724 0.01468847 24.57149339 0.02165389 C28.26840913 0.02788766 31.96532556 0.02849125 35.66224575 0.0296793 C42.66749824 0.03279255 49.6727352 0.04100584 56.67798084 0.05102879 C64.65124801 0.06219013 72.6245159 0.06770043 80.59778893 0.07272422 C97.00368814 0.08318846 113.40957172 0.10078778 129.81545925 0.12304783 C129.48545925 1.11304783 129.15545925 2.10304783 128.81545925 3.12304783 C85.91545925 3.12304783 43.01545925 3.12304783 -1.18454075 3.12304783 C-5.47454075 10.71304783 -9.76454075 18.30304783 -14.18454075 26.12304783 C-15.17454075 27.11304783 -16.16454075 28.10304783 -17.18454075 29.12304783 C-16.58947585 25.09084427 -15.29781804 22.1661301 -13.27829075 18.63867283 C-12.69950169 17.62160252 -12.12071262 16.6045322 -11.5243845 15.55664158 C-10.61366184 13.98076267 -10.61366184 13.98076267 -9.68454075 12.37304783 C-9.07739231 11.30699314 -8.47024387 10.24093845 -7.844697 9.14257908 C-2.7024403 0.15221937 -2.7024403 0.15221937 0 0 Z " fill="#E4E3E2" transform="translate(554.1845407485962,451.8769521713257)"/>
<path d="M0 0 C34.32 0 68.64 0 104 0 C104 0.99 104 1.98 104 3 C53.015 3.495 53.015 3.495 1 4 C-3.62 12.25 -8.24 20.5 -13 29 C-13.66 29.33 -14.32 29.66 -15 30 C-12.80735495 19.03677476 -5.46275173 9.75491381 0 0 Z " fill="#BA2B3C" transform="translate(705,451)"/>
<path d="M0 0 C0.99 0.33 1.98 0.66 3 1 C0.525 5.455 0.525 5.455 -2 10 C-21.53250769 10.04677106 -41.06500399 10.08201386 -60.59755611 10.10362434 C-69.6673514 10.11392625 -78.73711185 10.12796581 -87.80688477 10.15087891 C-95.71433253 10.17084604 -103.62175504 10.18372433 -111.52922732 10.18817699 C-115.71413172 10.19077874 -119.89896393 10.19687133 -124.08384514 10.21146011 C-128.02772779 10.22509658 -131.97150891 10.22921044 -135.9154129 10.22621536 C-137.35810206 10.22676282 -138.80079484 10.23070401 -140.24346352 10.23841095 C-147.81473217 10.27685296 -154.68324108 10.02053647 -162 8 C-162 7.67 -162 7.34 -162 7 C-161.1499086 7.07105453 -160.2998172 7.14210907 -159.42396545 7.21531677 C-144.56523311 8.27873922 -129.69148616 8.12963634 -114.80430102 8.10139394 C-110.8979426 8.09506836 -106.99158309 8.09454942 -103.08522034 8.09336853 C-95.71571644 8.090282 -88.34622769 8.08210536 -80.97673041 8.07201904 C-72.5750471 8.06077391 -64.17336301 8.05532645 -55.77167404 8.05032361 C-38.51444065 8.03991997 -21.25722194 8.02237336 -4 8 C-3.71125 7.236875 -3.4225 6.47375 -3.125 5.6875 C-2 3 -2 3 0 0 Z " fill="#6B6B6A" transform="translate(594,604)"/>
<path d="M0 0 C4.29 0 8.58 0 13 0 C13 14.52 13 29.04 13 44 C12.67 44 12.34 44 12 44 C11.00277363 35.87972811 10.88977704 27.79670083 10.875 19.625 C10.87048828 18.57892578 10.86597656 17.53285156 10.86132812 16.45507812 C10.8708209 11.52832624 10.95212018 6.84020677 12 2 C8.37 2 4.74 2 1 2 C1 19.16 1 36.32 1 54 C0.34 54 -0.32 54 -1 54 C-1.02526648 46.47030348 -1.04283141 38.9406178 -1.05493164 31.41088867 C-1.0599737 28.84708243 -1.06680714 26.28327909 -1.07543945 23.71948242 C-1.08751064 20.04344979 -1.09322942 16.36745502 -1.09765625 12.69140625 C-1.10281754 11.53725723 -1.10797882 10.38310822 -1.11329651 9.19398499 C-1.11337204 8.13296066 -1.11344757 7.07193634 -1.11352539 5.97875977 C-1.115746 5.03944107 -1.11796661 4.10012238 -1.12025452 3.13233948 C-1 1 -1 1 0 0 Z " fill="#A51423" transform="translate(582,908)"/>
<path d="M0 0 C0.495 0.99 0.495 0.99 1 2 C0.20239258 3.8215332 0.20239258 3.8215332 -1.10546875 6.05078125 C-1.82972046 7.30012451 -1.82972046 7.30012451 -2.56860352 8.57470703 C-3.10283936 9.47817871 -3.6370752 10.38165039 -4.1875 11.3125 C-5.30492045 13.23293739 -6.42210138 15.15351417 -7.5390625 17.07421875 C-8.1155957 18.0595459 -8.69212891 19.04487305 -9.28613281 20.06005859 C-11.91116347 24.56299579 -14.48523401 29.09461645 -17.0625 33.625 C-20.00151955 38.78149491 -22.95191063 43.93018342 -25.953125 49.05078125 C-38.60125992 69.15971793 -38.60125992 69.15971793 -42 92 C-41.24480256 94.88467859 -40.25567735 97.27936573 -39 100 C-39.99 100 -40.98 100 -42 100 C-46.75740941 89.09760343 -45.1238894 81.01891513 -41 70 C-38.932249 65.81317201 -36.57212719 61.84963334 -34.125 57.875 C-32.91775472 55.87330944 -31.71201555 53.87070972 -30.5078125 51.8671875 C-29.92088623 50.89571777 -29.33395996 49.92424805 -28.72924805 48.92333984 C-26.02467772 44.35119172 -23.51626233 39.67749813 -21 35 C-14.41046303 23.08129487 -7.21862263 11.54516888 0 0 Z " fill="#838382" transform="translate(490,441)"/>
<path d="M0 0 C-0.33 0.99 -0.66 1.98 -1 3 C-3.23046875 3.88671875 -3.23046875 3.88671875 -6.1875 4.6875 C-21.55901925 9.51386564 -35.64698661 19.82949727 -46.51171875 31.6015625 C-48 33 -48 33 -50 33 C-48.89667672 25.57764338 -40.55837436 20.25179603 -34.9375 16 C-12.13990481 0 -12.13990481 0 0 0 Z " fill="#D4D3D3" transform="translate(513,342)"/>
<path d="M0 0 C0.66 0.99 1.32 1.98 2 3 C-1.35487838 9.25768095 -4.81983436 15.41345808 -8.5078125 21.48046875 C-10.03416636 24.05768928 -11.4611576 26.67205379 -12.875 29.3125 C-15.81277922 34.775055 -19.05496673 40.00710919 -22.36328125 45.25 C-24.10088713 47.94690285 -24.10088713 47.94690285 -25 51 C-25.66 51 -26.32 51 -27 51 C-27.495 53.475 -27.495 53.475 -28 56 C-28.66 56 -29.32 56 -30 56 C-29.41921503 52.30398418 -28.40940419 49.56292492 -26.55078125 46.32421875 C-26.03878174 45.42485596 -25.52678223 44.52549316 -24.99926758 43.59887695 C-24.16431763 42.15774536 -24.16431763 42.15774536 -23.3125 40.6875 C-22.74104248 39.68871826 -22.16958496 38.68993652 -21.58081055 37.66088867 C-16.60402674 28.98409466 -11.56221481 20.34395734 -6.49536133 11.71948242 C-5.9361499 10.76662354 -5.37693848 9.81376465 -4.80078125 8.83203125 C-4.30747314 7.99389893 -3.81416504 7.1557666 -3.3059082 6.29223633 C-2.12805988 4.22478113 -1.03954 2.13968651 0 0 Z " fill="#C9C8C8" transform="translate(429,424)"/>
<path d="M0 0 C11.45771926 5.21713143 18.32504199 18.90339637 23 30 C25.52952041 37.07046669 26.43864724 43.51050457 26 51 C25.67 51 25.34 51 25 51 C24.70867188 49.77925781 24.41734375 48.55851563 24.1171875 47.30078125 C21.90083004 38.30158199 19.48941383 29.97882767 15.33203125 21.6640625 C14.07491143 19.14982286 13.00632397 16.62311935 12 14 C11.34 14 10.68 14 10 14 C8.6328125 12.390625 8.6328125 12.390625 7.125 10.25 C5.37741569 7.82565509 3.74667413 5.74667413 1.625 3.625 C1.08875 3.08875 0.5525 2.5525 0 2 C0 1.34 0 0.68 0 0 Z " fill="#E84259" transform="translate(852,469)"/>
<path d="M0 0 C1.97909398 -0.02686553 3.95828971 -0.04633375 5.9375 -0.0625 C7.03964844 -0.07410156 8.14179687 -0.08570313 9.27734375 -0.09765625 C12 0 12 0 13 1 C13.0928726 2.41225046 13.11746772 3.82908934 13.11352539 5.24438477 C13.11344986 6.14524307 13.11337433 7.04610138 13.11329651 7.97425842 C13.10813522 8.95341721 13.10297394 9.93257599 13.09765625 10.94140625 C13.0962413 11.93881332 13.09482635 12.9362204 13.09336853 13.96385193 C13.08775114 17.16343124 13.07519571 20.36294169 13.0625 23.5625 C13.05748724 25.72591045 13.05292395 27.88932199 13.04882812 30.05273438 C13.03777607 35.36851325 13.02102104 40.68425171 13 46 C12.67 46 12.34 46 12 46 C11.13647987 36.01354054 10.87355598 26.14945512 10.9375 16.125 C10.94253489 14.74349124 10.94709421 13.36198067 10.95117188 11.98046875 C10.96280429 8.65359754 10.9791472 5.32682398 11 2 C7.37 2 3.74 2 0 2 C0 1.34 0 0.68 0 0 Z " fill="#BF1F2E" transform="translate(661,908)"/>
<path d="M0 0 C0.66 0 1.32 0 2 0 C1.34 1.65 0.68 3.3 0 5 C-29.37 4.67 -58.74 4.34 -89 4 C-89 3.67 -89 3.34 -89 3 C-45.44 2.505 -45.44 2.505 -1 2 C-0.67 1.34 -0.34 0.68 0 0 Z " fill="#B7B6B5" transform="translate(561,549)"/>
<path d="M0 0 C13.53 0 27.06 0 41 0 C40.67 0.66 40.34 1.32 40 2 C33.77547474 3.42299093 27.47415286 3.18395299 21.125 3.1875 C19.97902344 3.19974609 18.83304687 3.21199219 17.65234375 3.22460938 C11.40298642 3.23539653 5.97670808 2.85762548 0 1 C0 0.67 0 0.34 0 0 Z " fill="#999998" transform="translate(470,554)"/>
<path d="M0 0 C0.33 0 0.66 0 1 0 C1.88889788 28.58148568 1.88889788 28.58148568 -3 41 C-3.99 41.495 -3.99 41.495 -5 42 C-4.80192749 41.15755737 -4.80192749 41.15755737 -4.59985352 40.2980957 C-2.99137239 32.95650199 -2.40744071 25.67794635 -1.9375 18.1875 C-1.78281107 15.8058019 -1.62536673 13.42428076 -1.46484375 11.04296875 C-1.399021 10.00164795 -1.33319824 8.96032715 -1.26538086 7.88745117 C-1.01794221 5.19521846 -0.58519754 2.63718103 0 0 Z " fill="#D52237" transform="translate(878,515)"/>
<path d="M0 0 C-1.4878147 3.70720679 -3.52405572 5.43386119 -6.6875 7.8125 C-10.66638144 10.88159379 -14.2081945 14.07036331 -17.625 17.75 C-19 19 -19 19 -21 19 C-19.89645697 11.25768221 -10.59055681 5.44838572 -4.7265625 0.99609375 C-3 0 -3 0 0 0 Z " fill="#DBDADA" transform="translate(484,356)"/>
<path d="M0 0 C0.66 0.33 1.32 0.66 2 1 C-3.72821689 10.50709761 -9.50970901 19.94911403 -15.73779297 29.13891602 C-17.92823183 32.37148385 -20.02720546 35.62980932 -22 39 C-22.495 37.515 -22.495 37.515 -23 36 C-21.8125 33.6875 -21.8125 33.6875 -20 31 C-19.34773437 30.01644531 -18.69546875 29.03289063 -18.0234375 28.01953125 C-17.35570312 27.02308594 -16.68796875 26.02664063 -16 25 C-14.86981414 23.23247189 -13.74470756 21.46168451 -12.625 19.6875 C-8.44013551 13.10992255 -4.22008626 6.55500927 0 0 Z " fill="#800813" transform="translate(624,712)"/>
<path d="M0 0 C0.33 0.66 0.66 1.32 1 2 C21.79 2 42.58 2 64 2 C63.34 3.65 62.68 5.3 62 7 C61.34 6.01 60.68 5.02 60 4 C57.37706711 3.5218788 57.37706711 3.5218788 54.26513672 3.56762695 C52.46349564 3.53793571 52.46349564 3.53793571 50.62545776 3.50764465 C49.32335358 3.50125473 48.02124939 3.49486481 46.6796875 3.48828125 C45.3373143 3.47144088 43.99495694 3.45329151 42.65261841 3.43388367 C39.11811266 3.38630693 35.58367107 3.35654775 32.0489502 3.33044434 C28.44266075 3.30067711 24.83659261 3.25413377 21.23046875 3.20898438 C14.15377233 3.12286444 7.07700763 3.05555812 0 3 C0 2.01 0 1.02 0 0 Z " fill="#181719" transform="translate(519,509)"/>
<path d="M0 0 C1.14275391 0.06123047 2.28550781 0.12246094 3.46289062 0.18554688 C6.24740375 0.33700575 9.0299088 0.50455704 11.8125 0.6875 C11.8125 1.3475 11.8125 2.0075 11.8125 2.6875 C10.02005859 2.67009766 10.02005859 2.67009766 8.19140625 2.65234375 C-2.96044452 2.57497361 -13.29424247 3.03500467 -24.1875 5.6875 C-24.1875 4.6975 -24.1875 3.7075 -24.1875 2.6875 C-15.89465869 -0.1608518 -8.70273258 -0.57610356 0 0 Z " fill="#C2C2C2" transform="translate(538.1875,337.3125)"/>
<path d="M0 0 C0.99 0.33 1.98 0.66 3 1 C1.35 3.97 -0.3 6.94 -2 10 C-16.19 10 -30.38 10 -45 10 C-45 9.67 -45 9.34 -45 9 C-31.47 8.67 -17.94 8.34 -4 8 C-3.34 6.35 -2.68 4.7 -2 3 C-1.34 2.01 -0.68 1.02 0 0 Z " fill="#777675" transform="translate(594,604)"/>
<path d="M0 0 C0.66 0.33 1.32 0.66 2 1 C-4.11266121 12.14061219 -10.37736289 23.15423197 -17 34 C-18 31 -18 31 -17.32250977 29.21337891 C-16.94924561 28.55772949 -16.57598145 27.90208008 -16.19140625 27.2265625 C-15.77745605 26.48970215 -15.36350586 25.7528418 -14.93701172 24.99365234 C-14.48342285 24.21199707 -14.02983398 23.4303418 -13.5625 22.625 C-12.8821167 21.42738037 -12.8821167 21.42738037 -12.18798828 20.20556641 C-8.28184682 13.3735787 -4.20669095 6.6508019 0 0 Z " fill="#D42C41" transform="translate(649,554)"/>
<path d="M0 0 C2 2 2 2 2.375 5.5 C2.18933433 11.50683034 0.29074192 17.1692127 -3.5078125 21.86328125 C-7.74605468 25.83540125 -12.43878352 27.56240662 -18 29 C-18.33 28.34 -18.66 27.68 -19 27 C-18.34773437 26.79246094 -17.69546875 26.58492187 -17.0234375 26.37109375 C-10.74202361 24.15684903 -6.53864439 21.75029713 -3 16 C-1.27720854 12.36165719 -0.66443723 9.19138174 -0.375 5.1875 C-0.30023437 4.21167969 -0.22546875 3.23585938 -0.1484375 2.23046875 C-0.09945312 1.49441406 -0.05046875 0.75835938 0 0 Z " fill="#DB2D45" transform="translate(812,525)"/>
<path d="M0 0 C1 3 1 3 -0.4152832 5.87915039 C-1.11634935 7.04187904 -1.82901834 8.19766062 -2.55078125 9.34765625 C-2.92478561 9.96015732 -3.29878998 10.57265839 -3.68412781 11.20372009 C-4.47726813 12.49853382 -5.27532637 13.79034591 -6.07788086 15.0793457 C-7.30634675 17.05261611 -8.52062652 19.03403584 -9.73242188 21.01757812 C-10.50439468 22.27393781 -11.27715527 23.52981386 -12.05078125 24.78515625 C-12.41544998 25.37788834 -12.78011871 25.97062042 -13.15583801 26.58131409 C-14.63531493 28.95390456 -16.01526602 31.01526602 -18 33 C-17.408591 28.8858301 -16.04906843 25.9716138 -13.9453125 22.40234375 C-13.02298828 20.82936523 -13.02298828 20.82936523 -12.08203125 19.22460938 C-11.43621094 18.13986328 -10.79039062 17.05511719 -10.125 15.9375 C-9.48691406 14.84888672 -8.84882812 13.76027344 -8.19140625 12.63867188 C-3.04033621 3.90120965 -3.04033621 3.90120965 0 0 Z " fill="#D42A41" transform="translate(629,589)"/>
<path d="M0 0 C1.8125 0.5625 1.8125 0.5625 4 2 C8.23550103 10.1451943 9.33470149 17.92587082 9 27 C8.67 27 8.34 27 8 27 C7.86424561 26.45585449 7.72849121 25.91170898 7.58862305 25.35107422 C6.96210074 22.85718136 6.32489458 20.36613527 5.6875 17.875 C5.47416016 17.0190625 5.26082031 16.163125 5.04101562 15.28125 C3.81084733 10.50746257 2.32561418 6.37842904 0 2 C0 1.34 0 0.68 0 0 Z " fill="#E3364B" transform="translate(869,493)"/>
<path d="M0 0 C0.68530273 1.64746094 0.68530273 1.64746094 1 4 C-0.17163086 6.65722656 -0.17163086 6.65722656 -1.96484375 9.640625 C-2.59970703 10.71054687 -3.23457031 11.78046875 -3.88867188 12.8828125 C-4.56478516 13.99398438 -5.24089844 15.10515625 -5.9375 16.25 C-6.60974609 17.37664062 -7.28199219 18.50328125 -7.97460938 19.6640625 C-9.63880435 22.44952359 -11.31421028 25.22757345 -13 28 C-14 25 -14 25 -12.82836914 22.36450195 C-12.23660889 21.33284912 -11.64484863 20.30119629 -11.03515625 19.23828125 C-10.40029297 18.12001953 -9.76542969 17.00175781 -9.11132812 15.84960938 C-8.42860328 14.67044675 -7.7456577 13.4914119 -7.0625 12.3125 C-6.38253356 11.1222756 -5.70348535 9.93152612 -5.02539062 8.74023438 C-3.35924199 5.82152011 -1.6838255 2.90854076 0 0 Z " fill="#D62F44" transform="translate(704,453)"/>
<path d="M0 0 C1.65 0 3.3 0 5 0 C5 3.63 5 7.26 5 11 C3.35 11 1.7 11 0 11 C0 7.37 0 3.74 0 0 Z " fill="#940F1C" transform="translate(561,930)"/>
<path d="M0 0 C0.66 0.66 1.32 1.32 2 2 C-0.09605379 5.77539797 -2.20321584 9.54448015 -4.3125 13.3125 C-4.90740234 14.38435547 -5.50230469 15.45621094 -6.11523438 16.56054688 C-6.69208984 17.58857422 -7.26894531 18.61660156 -7.86328125 19.67578125 C-8.65665894 21.0975769 -8.65665894 21.0975769 -9.46606445 22.5480957 C-10.81973126 24.7118512 -12.10916139 26.30741445 -14 28 C-13.40540982 23.94714475 -12.09571168 21.02070282 -10.05859375 17.48046875 C-9.47529297 16.45888672 -8.89199219 15.43730469 -8.29101562 14.38476562 C-7.67935547 13.32966797 -7.06769531 12.27457031 -6.4375 11.1875 C-5.82197266 10.11306641 -5.20644531 9.03863281 -4.57226562 7.93164062 C-3.05435656 5.28412482 -1.53010236 2.64048144 0 0 Z " fill="#D6D5D6" transform="translate(551,453)"/>
<path d="M0 0 C1.97558594 1.20825195 1.97558594 1.20825195 4 3 C4.45410156 5.17651367 4.45410156 5.17651367 4.390625 7.66796875 C4.37773437 8.56064453 4.36484375 9.45332031 4.3515625 10.37304688 C4.31804687 11.30181641 4.28453125 12.23058594 4.25 13.1875 C4.23195313 14.12787109 4.21390625 15.06824219 4.1953125 16.03710938 C4.1481655 18.35909889 4.08238231 20.6790369 4 23 C3.34 23 2.68 23 2 23 C1.93941406 22.07316406 1.87882812 21.14632812 1.81640625 20.19140625 C1.73261719 18.99386719 1.64882813 17.79632812 1.5625 16.5625 C1.48128906 15.36753906 1.40007812 14.17257812 1.31640625 12.94140625 C1.32343886 10.11429756 1.32343886 10.11429756 0 9 C-0.07179964 7.48071962 -0.08392007 5.95832518 -0.0625 4.4375 C-0.05347656 3.61121094 -0.04445313 2.78492188 -0.03515625 1.93359375 C-0.02355469 1.29550781 -0.01195312 0.65742187 0 0 Z " fill="#979696" transform="translate(376,526)"/>
<path d="M0 0 C0.99 0.33 1.98 0.66 3 1 C1.94912082 3.06844518 0.88374228 5.12952709 -0.1875 7.1875 C-0.77917969 8.33605469 -1.37085938 9.48460937 -1.98046875 10.66796875 C-4.06298303 14.10391592 -6.06623921 16.30945254 -9 19 C-8.42334609 14.2128572 -6.35917004 10.74871176 -3.9375 6.6875 C-3.56044922 6.04232422 -3.18339844 5.39714844 -2.79492188 4.73242188 C-1.86962507 3.15121848 -0.93567319 1.5750854 0 0 Z " fill="#C3C2C2" transform="translate(396,482)"/>
<path d="M0 0 C1.32 0 2.64 0 4 0 C4 3.63 4 7.26 4 11 C2.68 11 1.36 11 0 11 C0 7.37 0 3.74 0 0 Z " fill="#B71629" transform="translate(690,930)"/>
<path d="M0 0 C3.54758499 0.6144924 6.67592936 1.561127 10 2.9375 C10.825 3.27652344 11.65 3.61554687 12.5 3.96484375 C13.325 4.30644531 14.15 4.64804687 15 5 C15.9075 5.33128906 16.815 5.66257812 17.75 6.00390625 C20 7 20 7 21 9 C15.46640844 8.4943565 11.43969425 7.04383132 6.5625 4.4375 C5.60827148 3.9434668 5.60827148 3.9434668 4.63476562 3.43945312 C3.08505424 2.63546752 1.54181678 1.81902334 0 1 C0 0.67 0 0.34 0 0 Z " fill="#626161" transform="translate(411,602)"/>
<path d="M0 0 C-1 3 -1 3 -2.70703125 3.94921875 C-3.40183594 4.19285156 -4.09664063 4.43648438 -4.8125 4.6875 C-5.49957031 4.93886719 -6.18664062 5.19023437 -6.89453125 5.44921875 C-9 6 -9 6 -13 6 C-13 5.01 -13 4.02 -13 3 C-11.58603098 2.49242138 -10.16868271 1.99425075 -8.75 1.5 C-7.96109375 1.2215625 -7.1721875 0.943125 -6.359375 0.65625 C-4 0 -4 0 0 0 Z " fill="#DEDDDD" transform="translate(513,342)"/>
<path d="M0 0 C3.3 0 6.6 0 10 0 C7.75 4.5 7.75 4.5 4 6 C2.68 4.02 1.36 2.04 0 0 Z " fill="#353335" transform="translate(576,871)"/>
<path d="M0 0 C-2.97119894 1.58924595 -5.89570712 2.67067166 -9.125 3.625 C-9.99382813 3.88539063 -10.86265625 4.14578125 -11.7578125 4.4140625 C-14 5 -14 5 -16 5 C-16 4.01 -16 3.02 -16 2 C-10.51324804 0.13216954 -5.77807024 -0.2358396 0 0 Z " fill="#DBDBDA" transform="translate(530,338)"/>
<path d="M0 0 C0.66 0.99 1.32 1.98 2 3 C0.35 6.3 -1.3 9.6 -3 13 C-3.99 12.34 -4.98 11.68 -6 11 C-4.02 7.37 -2.04 3.74 0 0 Z " fill="#C6C5C5" transform="translate(429,424)"/>
<path d="M0 0 C3.54433654 1.41773462 4.33806119 2.67612238 6 6 C6.66 6.33 7.32 6.66 8 7 C10.49016793 8.24508396 10.98686718 9.46716796 12 12 C6.84075403 9.49854741 3.46633474 5.45528903 0 1 C0 0.67 0 0.34 0 0 Z " fill="#878787" transform="translate(393,586)"/>
<path d="M0 0 C0.33 0 0.66 0 1 0 C1.0825 1.134375 1.165 2.26875 1.25 3.4375 C1.84563714 8.4070696 3.78762273 12.5546652 6 17 C5.01 17 4.02 17 3 17 C0.4084738 11.06108578 -0.40368295 6.45892714 0 0 Z " fill="#8A8989" transform="translate(445,524)"/>
<path d="M0 0 C0.66 0 1.32 0 2 0 C0.78065514 4.03321763 -0.55954927 7.54269479 -3 11 C-3.66 11 -4.32 11 -5 11 C-4.46968862 6.4923533 -2.74778884 3.58045212 0 0 Z " fill="#D0CFCF" transform="translate(423,436)"/>
<path d="M0 0 C0.99 0.33 1.98 0.66 3 1 C1.62753981 3.95606811 0.21956005 6.59591596 -2 9 C-4.95262073 9.74224846 -6.9203373 9.41758138 -10 9 C-10 8.67 -10 8.34 -10 8 C-8.02 8 -6.04 8 -4 8 C-3.566875 6.8553125 -3.566875 6.8553125 -3.125 5.6875 C-2 3 -2 3 0 0 Z " fill="#8E8E8D" transform="translate(594,604)"/>
<path d="M0 0 C0.66 0 1.32 0 2 0 C0.23570801 4.97209562 -2.3939166 9.43438061 -5 14 C-5.67578125 12.328125 -5.67578125 12.328125 -6 10 C-4.85546875 7.421875 -4.85546875 7.421875 -3.1875 4.75 C-2.37345703 3.41195313 -2.37345703 3.41195313 -1.54296875 2.046875 C-1.03378906 1.37140625 -0.52460937 0.6959375 0 0 Z " fill="#CECCCC" transform="translate(534,483)"/>
<path d="M0 0 C4.92908146 3.87792288 8.5423711 7.76116833 12 13 C11.01 13 10.02 13 9 13 C6.73828125 10.6640625 6.73828125 10.6640625 4.3125 7.625 C3.10013672 6.12839844 3.10013672 6.12839844 1.86328125 4.6015625 C0 2 0 2 0 0 Z " fill="#D5D5D5" transform="translate(545,810)"/>
<path d="M0 0 C0.66 0.33 1.32 0.66 2 1 C0.28032649 4.02990095 -1.29238306 6.76327296 -4 9 C-4.66 9 -5.32 9 -6 9 C-5.52797514 4.75177626 -3.03344482 2.80010291 0 0 Z " fill="#E3E3E3" transform="translate(469,366)"/>
<path d="M0 0 C3.21043882 1.38188453 5.04936365 2.92421903 7.25 5.625 C8.03117188 6.57246094 8.03117188 6.57246094 8.828125 7.5390625 C9.40820312 8.26222656 9.40820312 8.26222656 10 9 C7 9 7 9 5.17578125 7.5390625 C4.56089844 6.90742188 3.94601562 6.27578125 3.3125 5.625 C2.68988281 4.99851562 2.06726563 4.37203125 1.42578125 3.7265625 C0 2 0 2 0 0 Z " fill="#EE4F64" transform="translate(852,469)"/>
<path d="M0 0 C0.33 0 0.66 0 1 0 C1.22577402 5.4185766 0.46670113 9.77487721 -1 15 C-1.33 15 -1.66 15 -2 15 C-2.05429959 13.25034642 -2.09292823 11.50020213 -2.125 9.75 C-2.15980469 8.28820312 -2.15980469 8.28820312 -2.1953125 6.796875 C-1.99862781 3.9803502 -1.44568916 2.39050964 0 0 Z " fill="#C0BFBE" transform="translate(379,517)"/>
<path d="M0 0 C5.61 0 11.22 0 17 0 C16.34 1.65 15.68 3.3 15 5 C14.34 4.01 13.68 3.02 13 2 C9.88389446 1.41407366 9.88389446 1.41407366 6.375 1.3125 C5.18648437 1.24675781 3.99796875 1.18101562 2.7734375 1.11328125 C1.85820313 1.07589844 0.94296875 1.03851562 0 1 C0 0.67 0 0.34 0 0 Z " fill="#222123" transform="translate(566,511)"/>
<path d="M0 0 C-1.3697164 3.99500618 -3.25722422 6.80009492 -6 10 C-5.38909774 3.52443609 -5.38909774 3.52443609 -3.5625 1.0625 C-2 0 -2 0 0 0 Z " fill="#D8D7D7" transform="translate(457,382)"/>
<path d="M0 0 C0.66 0 1.32 0 2 0 C0.125 7.75 0.125 7.75 -1 10 C-1.66 10 -2.32 10 -3 10 C-2.49287967 6.28111761 -1.88391785 3.26545761 0 0 Z " fill="#B9B7B8" transform="translate(384,503)"/>
<path d="M0 0 C0.66 0.99 1.32 1.98 2 3 C0.625 6.6875 0.625 6.6875 -1 10 C-1.99 9.67 -2.98 9.34 -4 9 C-2.94124926 5.59687262 -1.99097846 2.98646769 0 0 Z " fill="#CAC9C9" transform="translate(444,398)"/>
<path d="M0 0 C0.66 0.99 1.32 1.98 2 3 C0.68 5.31 -0.64 7.62 -2 10 C-2.66 9.67 -3.32 9.34 -4 9 C-2.80100302 5.9168649 -1.52299523 2.93720508 0 0 Z " fill="#C5C4C4" transform="translate(417,445)"/>
<path d="M0 0 C1.60875 0.556875 1.60875 0.556875 3.25 1.125 C3.25 2.115 3.25 3.105 3.25 4.125 C-0.38 3.135 -4.01 2.145 -7.75 1.125 C-3.75 -0.875 -3.75 -0.875 0 0 Z " fill="#E03B54" transform="translate(833.75,456.875)"/>
<path d="M0 0 C2.5 2.3125 2.5 2.3125 5 5 C5 5.99 5 6.98 5 8 C4.01 8 3.02 8 2 8 C0.23537317 4.91190305 0 3.76687864 0 0 Z " fill="#171718" transform="translate(541,831)"/>
<path d="M0 0 C0.33 0 0.66 0 1 0 C1.33 3.63 1.66 7.26 2 11 C2.66 11 3.32 11 4 11 C3.67 11.99 3.34 12.98 3 14 C1 13 1 13 0 10 C-0.06802967 8.27204648 -0.08495645 6.54164635 -0.0625 4.8125 C-0.05347656 3.91144531 -0.04445313 3.01039063 -0.03515625 2.08203125 C-0.02355469 1.39496094 -0.01195312 0.70789063 0 0 Z " fill="#AA1628" transform="translate(926,859)"/>
<path d="M0 0 C2.23551759 3.35327639 2.17283528 3.90743657 1.625 7.6875 C1.51414062 8.49574219 1.40328125 9.30398438 1.2890625 10.13671875 C1.19367187 10.75160156 1.09828125 11.36648438 1 12 C-1.58464442 7.61991557 -0.81479148 4.88874887 0 0 Z " fill="#96101D" transform="translate(679,860)"/>
<path d="M0 0 C0 3.58912412 -0.66436554 4.10857029 -3 6.6875 C-3.556875 7.31011719 -4.11375 7.93273437 -4.6875 8.57421875 C-5.120625 9.04472656 -5.55375 9.51523437 -6 10 C-6.66 9.67 -7.32 9.34 -8 9 C-5.36 6.03 -2.72 3.06 0 0 Z " fill="#D4D4D4" transform="translate(601,828)"/>
<path d="M0 0 C1.64666203 0.1135629 3.29236082 0.24117381 4.9375 0.375 C5.85402344 0.44460938 6.77054688 0.51421875 7.71484375 0.5859375 C8.84599609 0.79089844 8.84599609 0.79089844 10 1 C10.33 1.66 10.66 2.32 11 3 C6.78121808 3.19622241 3.82989106 2.80230168 0 1 C0 0.67 0 0.34 0 0 Z " fill="#F24E67" transform="translate(819,454)"/>
</svg>
